{
  "accessors": [
    {
      "bufferView": 2,
      "componentType": 5126,
      "count": 768,
      "max": [
        0.13971590995788574,
        0.32930195331573486,
        1.4650321006774902
      ],
      "min": [
        -0.27433741092681885,
        -0.07308324426412582,
        -0.09452450275421143
      ],
      "type": "VEC3"
    },
    {
      "bufferView": 2,
      "byteOffset": 9216,
      "componentType": 5126,
      "count": 768,
      "max": [
        0.9999046921730042,
        0.9837448596954346,
        0.9573075175285339
      ],
      "min": [
        -0.999809741973877,
        -0.9842568039894104,
        -1.0
      ],
      "type": "VEC3"
    },
    {
      "bufferView": 1,
      "componentType": 5126,
      "count": 768,
      "max": [
        1.0,
        1.0
      ],
      "min": [
        -8.940696716308594e-08,
        0.01000000536441803
      ],
      "type": "VEC2"
    },
    {
      "bufferView": 0,
      "componentType": 5125,
      "count": 1116,
      "type": "SCALAR"
    },
    {
      "bufferView": 2,
      "byteOffset": 18432,
      "componentType": 5126,
      "count": 240,
      "max": [
        0.16766293346881866,
        0.34377068281173706,
        1.406928539276123
      ],
      "min": [
        -0.1611778736114502,
        0.031537849456071854,
        0.5194803476333618
      ],
      "type": "VEC3"
    },
    {
      "bufferView": 2,
      "byteOffset": 21312,
      "componentType": 5126,
      "count": 240,
      "max": [
        0.9999112486839294,
        0.9578814506530762,
        0.8309159278869629
      ],
      "min": [
        -0.9962301850318909,
        -0.939149796962738,
        -0.9215176105499268
      ],
      "type": "VEC3"
    },
    {
      "bufferView": 1,
      "byteOffset": 6144,
      "componentType": 5126,
      "count": 240,
      "max": [
        1.0,
        1.0
      ],
      "min": [
        -8.940696716308594e-08,
        1.0
      ],
      "type": "VEC2"
    },
    {
      "bufferView": 0,
      "byteOffset": 4464,
      "componentType": 5125,
      "count": 360,
      "type": "SCALAR"
    }
  ],
  "asset": {
    "extras": {
      "author": "daniel.2U (https://sketchfab.com/daniel.2U)",
      "license": "CC-BY-4.0 (http://creativecommons.org/licenses/by/4.0/)",
      "source": "https://sketchfab.com/3d-models/reeds-low-poly-a8923e7b4fd44c2c9ba7f006fb952626",
      "title": "Reeds low poly"
    },
    "generator": "Sketchfab-13.74.0",
    "version": "2.0"
  },
  "bufferViews": [
    {
      "buffer": 0,
      "byteLength": 5904,
      "name": "floatBufferViews",
      "target": 34963
    },
    {
      "buffer": 0,
      "byteLength": 8064,
      "byteOffset": 5904,
      "byteStride": 8,
      "name": "floatBufferViews",
      "target": 34962
    },
    {
      "buffer": 0,
      "byteLength": 24192,
      "byteOffset": 13968,
      "byteStride": 12,
      "name": "floatBufferViews",
      "target": 34962
    }
  ],
  "buffers": [
    {
      "byteLength": 38160,
      "uri": "scene.bin"
    }
  ],
  "materials": [
    {
      "doubleSided": true,
      "name": "Material.038",
      "pbrMetallicRoughness": {
        "baseColorFactor": [
          0.22308,
          0.383162,
          0.028823,
          1.0
        ],
        "metallicFactor": 0.0,
        "roughnessFactor": 0.9276530735524049
      }
    },
    {
      "doubleSided": true,
      "name": "Material.039",
      "pbrMetallicRoughness": {
        "baseColorFactor": [
          0.122605,
          0.0597043,
          0.00641369,
          1.0
        ],
        "metallicFactor": 0.0,
        "roughnessFactor": 0.9845198340402407
      }
    }
  ],
  "meshes": [
    {
      "name": "Cylinder.663_Material.038_0",
      "primitives": [
        {
          "attributes": {
            "NORMAL": 1,
            "POSITION": 0,
            "TEXCOORD_0": 2
          },
          "indices": 3,
          "material": 0,
          "mode": 4
        }
      ]
    },
    {
      "name": "Cylinder.663_Material.039_0",
      "primitives": [
        {
          "attributes": {
            "NORMAL": 5,
            "POSITION": 4,
            "TEXCOORD_0": 6
          },
          "indices": 7,
          "material": 1,
          "mode": 4
        }
      ]
    }
  ],
  "nodes": [
    {
      "children": [
        1
      ],
      "matrix": [
        1.0,
        0.0,
        0.0,
        0.0,
        0.0,
        2.220446049250313e-16,
        -1.0,
        0.0,
        0.0,
        1.0,
        2.220446049250313e-16,
        0.0,
        0.0,
        0.0,
        0.0,
        1.0
      ],
      "name": "Sketchfab_model"
    },
    {
      "children": [
        2
      ],
      "matrix": [
        0.009999999776482582,
        0.0,
        0.0,
        0.0,
        0.0,
        0.0,
        0.009999999776482582,
        0.0,
        0.0,
        -0.009999999776482582,
        0.0,
        0.0,
        0.0,
        0.0,
        0.0,
        1.0
      ],
      "name": "a1574d9a1d674999bf3baea9b0c9fa93.fbx"
    },
    {
      "children": [
        3
      ],
      "name": "RootNode"
    },
    {
      "children": [
        4,
        5
      ],
      "matrix": [
        100.0,
        0.0,
        0.0,
        0.0,
        0.0,
        -1.629206793918314e-05,
        -99.99999999999868,
        0.0,
        0.0,
        99.99999999999868,
        -1.629206793918314e-05,
        0.0,
        3432.28955078125,
        10.819028854370117,
        2478.287109375,
        1.0
      ],
      "name": "Cylinder.663"
    },
    {
      "mesh": 0,
      "name": "Cylinder.663_Material.038_0"
    },
    {
      "mesh": 1,
      "name": "Cylinder.663_Material.039_0"
    }
  ],
  "scene": 0,
  "scenes": [
    {
      "name": "Sketchfab_Scene",
      "nodes": [
        0
      ]
    }
  ]
}
