{
    "asset" : {
        "copyright" : "Copyright 2020 Omabuarts Studio. For more info, visit https://omabuarts.com/license",
        "generator" : "Khronos glTF Blender I/O v1.1.46",
        "version" : "2.0"
    },
    "scene" : 0,
    "scenes" : [
        {
            "name" : "Scene",
            "nodes" : [
                7
            ]
        }
    ],
    "nodes" : [
        {
            "name" : "body",
            "rotation" : [
                0.7071068286895752,
                0,
                0,
                0.7071068286895752
            ],
            "translation" : [
                0,
                0,
                0.17677238583564758
            ]
        },
        {
            "name" : "leg.F.L",
            "rotation" : [
                0.0037753034848719835,
                0.5080022811889648,
                -0.8583182692527771,
                0.07217537611722946
            ],
            "scale" : [
                0.9999999403953552,
                0.9999996423721313,
                0.9999997019767761
            ],
            "translation" : [
                0.21091440320014954,
                -0.31882357597351074,
                0.49623042345046997
            ]
        },
        {
            "name" : "leg.B.L",
            "rotation" : [
                5.338508657359853e-08,
                0.7071068286895752,
                -0.7071068286895752,
                -5.338509012631221e-08
            ],
            "translation" : [
                0.46814483404159546,
                0.18337944149971008,
                0.622649610042572
            ]
        },
        {
            "name" : "leg.B.R",
            "rotation" : [
                5.338508657359853e-08,
                0.7071068286895752,
                -0.7071068286895752,
                -5.338509012631221e-08
            ],
            "translation" : [
                -0.46814483404159546,
                0.18337944149971008,
                0.622649610042572
            ]
        },
        {
            "name" : "leg.F.R",
            "rotation" : [
                0.0037753034848719835,
                -0.5080022811889648,
                0.8583182692527771,
                0.07217537611722946
            ],
            "scale" : [
                0.9999999403953552,
                0.9999996423721313,
                0.9999997019767761
            ],
            "translation" : [
                -0.21091440320014954,
                -0.31882357597351074,
                0.49623042345046997
            ]
        },
        {
            "children" : [
                0,
                1,
                2,
                3,
                4
            ],
            "name" : "root",
            "rotation" : [
                -0.7071068286895752,
                0,
                0,
                0.7071068286895752
            ]
        },
        {
            "mesh" : 0,
            "name" : "Frog",
            "skin" : 0
        },
        {
            "children" : [
                6,
                5
            ],
            "name" : "Rig"
        }
    ],
    "materials" : [
        {
            "doubleSided" : true,
            "emissiveFactor" : [
                0,
                0,
                0
            ],
            "name" : "Mat_Frog",
            "pbrMetallicRoughness" : {
                "baseColorTexture" : {
                    "index" : 0,
                    "texCoord" : 0
                },
                "metallicFactor" : 0,
                "roughnessFactor" : 0.5
            }
        }
    ],
    "meshes" : [
        {
            "name" : "Cube.003",
            "primitives" : [
                {
                    "attributes" : {
                        "POSITION" : 0,
                        "NORMAL" : 1,
                        "TEXCOORD_0" : 2,
                        "JOINTS_0" : 3,
                        "WEIGHTS_0" : 4
                    },
                    "indices" : 5,
                    "material" : 0
                }
            ]
        }
    ],
    "textures" : [
        {
            "source" : 0
        }
    ],
    "images" : [
        {
            "bufferView" : 6,
            "mimeType" : "image/png",
            "name" : "Tex_Frog"
        }
    ],
    "skins" : [
        {
            "inverseBindMatrices" : 6,
            "joints" : [
                5,
                0,
                1,
                2,
                3,
                4
            ],
            "name" : "Rig"
        }
    ],
    "accessors" : [
        {
            "bufferView" : 0,
            "componentType" : 5126,
            "count" : 187,
            "max" : [
                0.5720250010490417,
                1.120234489440918,
                0.853758692741394
            ],
            "min" : [
                -0.5720250010490417,
                0.0039823018014431,
                -0.5988680720329285
            ],
            "type" : "VEC3"
        },
        {
            "bufferView" : 1,
            "componentType" : 5126,
            "count" : 187,
            "type" : "VEC3"
        },
        {
            "bufferView" : 2,
            "componentType" : 5126,
            "count" : 187,
            "type" : "VEC2"
        },
        {
            "bufferView" : 3,
            "componentType" : 5123,
            "count" : 187,
            "type" : "VEC4"
        },
        {
            "bufferView" : 4,
            "componentType" : 5126,
            "count" : 187,
            "type" : "VEC4"
        },
        {
            "bufferView" : 5,
            "componentType" : 5123,
            "count" : 864,
            "type" : "SCALAR"
        },
        {
            "bufferView" : 7,
            "componentType" : 5126,
            "count" : 6,
            "type" : "MAT4"
        }
    ],
    "bufferViews" : [
        {
            "buffer" : 0,
            "byteLength" : 2244,
            "byteOffset" : 0
        },
        {
            "buffer" : 0,
            "byteLength" : 2244,
            "byteOffset" : 2244
        },
        {
            "buffer" : 0,
            "byteLength" : 1496,
            "byteOffset" : 4488
        },
        {
            "buffer" : 0,
            "byteLength" : 1496,
            "byteOffset" : 5984
        },
        {
            "buffer" : 0,
            "byteLength" : 2992,
            "byteOffset" : 7480
        },
        {
            "buffer" : 0,
            "byteLength" : 1728,
            "byteOffset" : 10472
        },
        {
            "buffer" : 0,
            "byteLength" : 131,
            "byteOffset" : 12200
        },
        {
            "buffer" : 0,
            "byteLength" : 384,
            "byteOffset" : 12332
        }
    ],
    "buffers" : [
        {
            "byteLength" : 12716,
            "uri" : "data:application/octet-stream;base64,"
        }
    ]
}
