{
    "asset" : {
        "copyright" : "Copyright 2020 Omabuarts Studio. For more info, visit https://omabuarts.com/license",
        "generator" : "Khronos glTF Blender I/O v1.1.46",
        "version" : "2.0"
    },
    "scene" : 0,
    "scenes" : [
        {
            "name" : "Scene",
            "nodes" : [
                10
            ]
        }
    ],
    "nodes" : [
        {
            "name" : "body",
            "rotation" : [
                0.7071068286895752,
                0,
                0,
                0.7071068286895752
            ],
            "translation" : [
                0,
                0,
                0.17677238583564758
            ]
        },
        {
            "name" : "leg.F.L",
            "rotation" : [
                0.0037753034848719835,
                0.5080022811889648,
                -0.8583182692527771,
                0.07217537611722946
            ],
            "scale" : [
                0.9999999403953552,
                0.9999996423721313,
                0.9999997019767761
            ],
            "translation" : [
                0.21091440320014954,
                -0.31882357597351074,
                0.49623042345046997
            ]
        },
        {
            "name" : "leg.B.L",
            "rotation" : [
                5.338508657359853e-08,
                0.7071068286895752,
                -0.7071068286895752,
                -5.338509012631221e-08
            ],
            "translation" : [
                0.46814483404159546,
                0.18337944149971008,
                0.622649610042572
            ]
        },
        {
            "name" : "leg.B.R",
            "rotation" : [
                5.338508657359853e-08,
                0.7071068286895752,
                -0.7071068286895752,
                -5.338509012631221e-08
            ],
            "translation" : [
                -0.46814483404159546,
                0.18337944149971008,
                0.622649610042572
            ]
        },
        {
            "name" : "leg.F.R",
            "rotation" : [
                0.0037753034848719835,
                -0.5080022811889648,
                0.8583182692527771,
                0.07217537611722946
            ],
            "scale" : [
                0.9999999403953552,
                0.9999996423721313,
                0.9999997019767761
            ],
            "translation" : [
                -0.21091440320014954,
                -0.31882357597351074,
                0.49623042345046997
            ]
        },
        {
            "children" : [
                0,
                1,
                2,
                3,
                4
            ],
            "name" : "root",
            "rotation" : [
                -0.7071068286895752,
                0,
                0,
                0.7071068286895752
            ]
        },
        {
            "mesh" : 0,
            "name" : "Frog_LOD0",
            "skin" : 0
        },
        {
            "mesh" : 1,
            "name" : "Frog_LOD1",
            "skin" : 0
        },
        {
            "mesh" : 2,
            "name" : "Frog_LOD2",
            "skin" : 0
        },
        {
            "mesh" : 3,
            "name" : "Frog_LOD3",
            "skin" : 0
        },
        {
            "children" : [
                6,
                7,
                8,
                9,
                5
            ],
            "name" : "Rig"
        }
    ],
    "materials" : [
        {
            "doubleSided" : true,
            "emissiveFactor" : [
                0,
                0,
                0
            ],
            "name" : "Mat_Frog",
            "pbrMetallicRoughness" : {
                "baseColorTexture" : {
                    "index" : 0,
                    "texCoord" : 0
                },
                "metallicFactor" : 0,
                "roughnessFactor" : 0.5
            }
        }
    ],
    "meshes" : [
        {
            "name" : "Cube.000",
            "primitives" : [
                {
                    "attributes" : {
                        "POSITION" : 0,
                        "NORMAL" : 1,
                        "TEXCOORD_0" : 2,
                        "JOINTS_0" : 3,
                        "WEIGHTS_0" : 4
                    },
                    "indices" : 5,
                    "material" : 0
                }
            ]
        },
        {
            "name" : "Cube.004",
            "primitives" : [
                {
                    "attributes" : {
                        "POSITION" : 7,
                        "NORMAL" : 8,
                        "TEXCOORD_0" : 9,
                        "JOINTS_0" : 10,
                        "WEIGHTS_0" : 11
                    },
                    "indices" : 12,
                    "material" : 0
                }
            ]
        },
        {
            "name" : "Cube.002",
            "primitives" : [
                {
                    "attributes" : {
                        "POSITION" : 13,
                        "NORMAL" : 14,
                        "TEXCOORD_0" : 15,
                        "JOINTS_0" : 16,
                        "WEIGHTS_0" : 17
                    },
                    "indices" : 18,
                    "material" : 0
                }
            ]
        },
        {
            "name" : "Cube.003",
            "primitives" : [
                {
                    "attributes" : {
                        "POSITION" : 19,
                        "NORMAL" : 20,
                        "TEXCOORD_0" : 21,
                        "JOINTS_0" : 22,
                        "WEIGHTS_0" : 23
                    },
                    "indices" : 24,
                    "material" : 0
                }
            ]
        }
    ],
    "textures" : [
        {
            "source" : 0
        }
    ],
    "images" : [
        {
            "bufferView" : 6,
            "mimeType" : "image/png",
            "name" : "Tex_Frog"
        }
    ],
    "skins" : [
        {
            "inverseBindMatrices" : 6,
            "joints" : [
                5,
                0,
                1,
                2,
                3,
                4
            ],
            "name" : "Rig"
        }
    ],
    "accessors" : [
        {
            "bufferView" : 0,
            "componentType" : 5126,
            "count" : 2175,
            "max" : [
                0.6147795915603638,
                1.1333577632904053,
                0.8689966201782227
            ],
            "min" : [
                -0.6147795915603638,
                -0.009250819683074951,
                -0.6030145287513733
            ],
            "type" : "VEC3"
        },
        {
            "bufferView" : 1,
            "componentType" : 5126,
            "count" : 2175,
            "type" : "VEC3"
        },
        {
            "bufferView" : 2,
            "componentType" : 5126,
            "count" : 2175,
            "type" : "VEC2"
        },
        {
            "bufferView" : 3,
            "componentType" : 5123,
            "count" : 2175,
            "type" : "VEC4"
        },
        {
            "bufferView" : 4,
            "componentType" : 5126,
            "count" : 2175,
            "type" : "VEC4"
        },
        {
            "bufferView" : 5,
            "componentType" : 5123,
            "count" : 6024,
            "type" : "SCALAR"
        },
        {
            "bufferView" : 7,
            "componentType" : 5126,
            "count" : 6,
            "type" : "MAT4"
        },
        {
            "bufferView" : 8,
            "componentType" : 5126,
            "count" : 758,
            "max" : [
                0.6255274415016174,
                1.1364896297454834,
                0.853758692741394
            ],
            "min" : [
                -0.6255274415016174,
                0.0039823018014431,
                -0.5822619199752808
            ],
            "type" : "VEC3"
        },
        {
            "bufferView" : 9,
            "componentType" : 5126,
            "count" : 758,
            "type" : "VEC3"
        },
        {
            "bufferView" : 10,
            "componentType" : 5126,
            "count" : 758,
            "type" : "VEC2"
        },
        {
            "bufferView" : 11,
            "componentType" : 5123,
            "count" : 758,
            "type" : "VEC4"
        },
        {
            "bufferView" : 12,
            "componentType" : 5126,
            "count" : 758,
            "type" : "VEC4"
        },
        {
            "bufferView" : 13,
            "componentType" : 5123,
            "count" : 2238,
            "type" : "SCALAR"
        },
        {
            "bufferView" : 14,
            "componentType" : 5126,
            "count" : 416,
            "max" : [
                0.5787176489830017,
                1.132917046546936,
                0.853758692741394
            ],
            "min" : [
                -0.5787176489830017,
                0.0039823018014431,
                -0.5905649662017822
            ],
            "type" : "VEC3"
        },
        {
            "bufferView" : 15,
            "componentType" : 5126,
            "count" : 416,
            "type" : "VEC3"
        },
        {
            "bufferView" : 16,
            "componentType" : 5126,
            "count" : 416,
            "type" : "VEC2"
        },
        {
            "bufferView" : 17,
            "componentType" : 5123,
            "count" : 416,
            "type" : "VEC4"
        },
        {
            "bufferView" : 18,
            "componentType" : 5126,
            "count" : 416,
            "type" : "VEC4"
        },
        {
            "bufferView" : 19,
            "componentType" : 5123,
            "count" : 1314,
            "type" : "SCALAR"
        },
        {
            "bufferView" : 20,
            "componentType" : 5126,
            "count" : 187,
            "max" : [
                0.5720250010490417,
                1.120234489440918,
                0.853758692741394
            ],
            "min" : [
                -0.5720250010490417,
                0.0039823018014431,
                -0.5988680720329285
            ],
            "type" : "VEC3"
        },
        {
            "bufferView" : 21,
            "componentType" : 5126,
            "count" : 187,
            "type" : "VEC3"
        },
        {
            "bufferView" : 22,
            "componentType" : 5126,
            "count" : 187,
            "type" : "VEC2"
        },
        {
            "bufferView" : 23,
            "componentType" : 5123,
            "count" : 187,
            "type" : "VEC4"
        },
        {
            "bufferView" : 24,
            "componentType" : 5126,
            "count" : 187,
            "type" : "VEC4"
        },
        {
            "bufferView" : 25,
            "componentType" : 5123,
            "count" : 864,
            "type" : "SCALAR"
        }
    ],
    "bufferViews" : [
        {
            "buffer" : 0,
            "byteLength" : 26100,
            "byteOffset" : 0
        },
        {
            "buffer" : 0,
            "byteLength" : 26100,
            "byteOffset" : 26100
        },
        {
            "buffer" : 0,
            "byteLength" : 17400,
            "byteOffset" : 52200
        },
        {
            "buffer" : 0,
            "byteLength" : 17400,
            "byteOffset" : 69600
        },
        {
            "buffer" : 0,
            "byteLength" : 34800,
            "byteOffset" : 87000
        },
        {
            "buffer" : 0,
            "byteLength" : 12048,
            "byteOffset" : 121800
        },
        {
            "buffer" : 0,
            "byteLength" : 131,
            "byteOffset" : 133848
        },
        {
            "buffer" : 0,
            "byteLength" : 384,
            "byteOffset" : 133980
        },
        {
            "buffer" : 0,
            "byteLength" : 9096,
            "byteOffset" : 134364
        },
        {
            "buffer" : 0,
            "byteLength" : 9096,
            "byteOffset" : 143460
        },
        {
            "buffer" : 0,
            "byteLength" : 6064,
            "byteOffset" : 152556
        },
        {
            "buffer" : 0,
            "byteLength" : 6064,
            "byteOffset" : 158620
        },
        {
            "buffer" : 0,
            "byteLength" : 12128,
            "byteOffset" : 164684
        },
        {
            "buffer" : 0,
            "byteLength" : 4476,
            "byteOffset" : 176812
        },
        {
            "buffer" : 0,
            "byteLength" : 4992,
            "byteOffset" : 181288
        },
        {
            "buffer" : 0,
            "byteLength" : 4992,
            "byteOffset" : 186280
        },
        {
            "buffer" : 0,
            "byteLength" : 3328,
            "byteOffset" : 191272
        },
        {
            "buffer" : 0,
            "byteLength" : 3328,
            "byteOffset" : 194600
        },
        {
            "buffer" : 0,
            "byteLength" : 6656,
            "byteOffset" : 197928
        },
        {
            "buffer" : 0,
            "byteLength" : 2628,
            "byteOffset" : 204584
        },
        {
            "buffer" : 0,
            "byteLength" : 2244,
            "byteOffset" : 207212
        },
        {
            "buffer" : 0,
            "byteLength" : 2244,
            "byteOffset" : 209456
        },
        {
            "buffer" : 0,
            "byteLength" : 1496,
            "byteOffset" : 211700
        },
        {
            "buffer" : 0,
            "byteLength" : 1496,
            "byteOffset" : 213196
        },
        {
            "buffer" : 0,
            "byteLength" : 2992,
            "byteOffset" : 214692
        },
        {
            "buffer" : 0,
            "byteLength" : 1728,
            "byteOffset" : 217684
        }
    ],
    "buffers" : [
        {
            "byteLength" : 219412,
            "uri" : "data:application/octet-stream;base64,"
        }
    ]
}
