{
    "asset" : {
        "copyright" : "Copyright 2020 Omabuarts Studio. For more info, visit https://omabuarts.com/license",
        "generator" : "Khronos glTF Blender I/O v1.1.46",
        "version" : "2.0"
    },
    "scene" : 0,
    "scenes" : [
        {
            "name" : "Scene",
            "nodes" : [
                7
            ]
        }
    ],
    "nodes" : [
        {
            "name" : "body",
            "rotation" : [
                0.7933533787727356,
                2.0493823192474888e-17,
                -2.0493824846836113e-17,
                0.6087614297866821
            ],
            "translation" : [
                0,
                0.06144487112760544,
                0.4402810335159302
            ]
        },
        {
            "name" : "leg.F.L",
            "rotation" : [
                -0.03148593753576279,
                0.14018414914608002,
                -0.9874841570854187,
                0.06505422294139862
            ],
            "scale" : [
                0.9999999403953552,
                0.9999995231628418,
                0.9999997615814209
            ],
            "translation" : [
                0.19814099371433258,
                -0.25958070158958435,
                0.5209951400756836
            ]
        },
        {
            "name" : "leg.B.L",
            "rotation" : [
                -3.0256180139076605e-07,
                0.9874404072761536,
                0.15799205005168915,
                -9.815121870815346e-08
            ],
            "scale" : [
                1,
                1.0000001192092896,
                1
            ],
            "translation" : [
                0.46814483404159546,
                0.016806872561573982,
                0.5893760323524475
            ]
        },
        {
            "name" : "leg.B.R",
            "rotation" : [
                -3.259318930304289e-07,
                0.9999123215675354,
                -0.013242914341390133,
                -2.511836498797493e-07
            ],
            "scale" : [
                1,
                1.0000001192092896,
                1.0000001192092896
            ],
            "translation" : [
                -0.46814483404159546,
                0.016806872561573982,
                0.5893760323524475
            ]
        },
        {
            "name" : "leg.F.R",
            "rotation" : [
                -0.047728292644023895,
                -0.39900875091552734,
                0.9140943288803101,
                0.05427323654294014
            ],
            "scale" : [
                0.9999999403953552,
                0.9999995827674866,
                0.9999997019767761
            ],
            "translation" : [
                -0.19814099371433258,
                -0.25958070158958435,
                0.5209951400756836
            ]
        },
        {
            "children" : [
                0,
                1,
                2,
                3,
                4
            ],
            "name" : "root",
            "rotation" : [
                -0.7071068286895752,
                0,
                0,
                0.7071068286895752
            ]
        },
        {
            "mesh" : 0,
            "name" : "Frog",
            "skin" : 0
        },
        {
            "children" : [
                6,
                5
            ],
            "name" : "Rig"
        }
    ],
    "animations" : [
        {
            "channels" : [
                {
                    "sampler" : 0,
                    "target" : {
                        "node" : 5,
                        "path" : "translation"
                    }
                },
                {
                    "sampler" : 1,
                    "target" : {
                        "node" : 5,
                        "path" : "rotation"
                    }
                },
                {
                    "sampler" : 2,
                    "target" : {
                        "node" : 5,
                        "path" : "scale"
                    }
                },
                {
                    "sampler" : 3,
                    "target" : {
                        "node" : 0,
                        "path" : "translation"
                    }
                },
                {
                    "sampler" : 4,
                    "target" : {
                        "node" : 0,
                        "path" : "rotation"
                    }
                },
                {
                    "sampler" : 5,
                    "target" : {
                        "node" : 0,
                        "path" : "scale"
                    }
                },
                {
                    "sampler" : 6,
                    "target" : {
                        "node" : 1,
                        "path" : "translation"
                    }
                },
                {
                    "sampler" : 7,
                    "target" : {
                        "node" : 1,
                        "path" : "rotation"
                    }
                },
                {
                    "sampler" : 8,
                    "target" : {
                        "node" : 1,
                        "path" : "scale"
                    }
                },
                {
                    "sampler" : 9,
                    "target" : {
                        "node" : 2,
                        "path" : "translation"
                    }
                },
                {
                    "sampler" : 10,
                    "target" : {
                        "node" : 2,
                        "path" : "rotation"
                    }
                },
                {
                    "sampler" : 11,
                    "target" : {
                        "node" : 2,
                        "path" : "scale"
                    }
                },
                {
                    "sampler" : 12,
                    "target" : {
                        "node" : 3,
                        "path" : "translation"
                    }
                },
                {
                    "sampler" : 13,
                    "target" : {
                        "node" : 3,
                        "path" : "rotation"
                    }
                },
                {
                    "sampler" : 14,
                    "target" : {
                        "node" : 3,
                        "path" : "scale"
                    }
                },
                {
                    "sampler" : 15,
                    "target" : {
                        "node" : 4,
                        "path" : "translation"
                    }
                },
                {
                    "sampler" : 16,
                    "target" : {
                        "node" : 4,
                        "path" : "rotation"
                    }
                },
                {
                    "sampler" : 17,
                    "target" : {
                        "node" : 4,
                        "path" : "scale"
                    }
                }
            ],
            "name" : "Swim",
            "samplers" : [
                {
                    "input" : 7,
                    "interpolation" : "LINEAR",
                    "output" : 8
                },
                {
                    "input" : 7,
                    "interpolation" : "LINEAR",
                    "output" : 9
                },
                {
                    "input" : 7,
                    "interpolation" : "LINEAR",
                    "output" : 10
                },
                {
                    "input" : 7,
                    "interpolation" : "LINEAR",
                    "output" : 11
                },
                {
                    "input" : 7,
                    "interpolation" : "LINEAR",
                    "output" : 12
                },
                {
                    "input" : 7,
                    "interpolation" : "LINEAR",
                    "output" : 13
                },
                {
                    "input" : 7,
                    "interpolation" : "LINEAR",
                    "output" : 14
                },
                {
                    "input" : 7,
                    "interpolation" : "LINEAR",
                    "output" : 15
                },
                {
                    "input" : 7,
                    "interpolation" : "LINEAR",
                    "output" : 16
                },
                {
                    "input" : 7,
                    "interpolation" : "LINEAR",
                    "output" : 17
                },
                {
                    "input" : 7,
                    "interpolation" : "LINEAR",
                    "output" : 18
                },
                {
                    "input" : 7,
                    "interpolation" : "LINEAR",
                    "output" : 19
                },
                {
                    "input" : 7,
                    "interpolation" : "LINEAR",
                    "output" : 20
                },
                {
                    "input" : 7,
                    "interpolation" : "LINEAR",
                    "output" : 21
                },
                {
                    "input" : 7,
                    "interpolation" : "LINEAR",
                    "output" : 22
                },
                {
                    "input" : 7,
                    "interpolation" : "LINEAR",
                    "output" : 23
                },
                {
                    "input" : 7,
                    "interpolation" : "LINEAR",
                    "output" : 24
                },
                {
                    "input" : 7,
                    "interpolation" : "LINEAR",
                    "output" : 25
                }
            ]
        }
    ],
    "materials" : [
        {
            "doubleSided" : true,
            "emissiveFactor" : [
                0,
                0,
                0
            ],
            "name" : "Mat_Frog",
            "pbrMetallicRoughness" : {
                "baseColorTexture" : {
                    "index" : 0,
                    "texCoord" : 0
                },
                "metallicFactor" : 0,
                "roughnessFactor" : 0.5
            }
        }
    ],
    "meshes" : [
        {
            "name" : "Cube.004",
            "primitives" : [
                {
                    "attributes" : {
                        "POSITION" : 0,
                        "NORMAL" : 1,
                        "TEXCOORD_0" : 2,
                        "JOINTS_0" : 3,
                        "WEIGHTS_0" : 4
                    },
                    "indices" : 5,
                    "material" : 0
                }
            ]
        }
    ],
    "textures" : [
        {
            "source" : 0
        }
    ],
    "images" : [
        {
            "bufferView" : 6,
            "mimeType" : "image/png",
            "name" : "Tex_Frog"
        }
    ],
    "skins" : [
        {
            "inverseBindMatrices" : 6,
            "joints" : [
                5,
                0,
                1,
                2,
                3,
                4
            ],
            "name" : "Rig"
        }
    ],
    "accessors" : [
        {
            "bufferView" : 0,
            "componentType" : 5126,
            "count" : 758,
            "max" : [
                0.6255274415016174,
                1.1364896297454834,
                0.853758692741394
            ],
            "min" : [
                -0.6255274415016174,
                0.0039823018014431,
                -0.5822619199752808
            ],
            "type" : "VEC3"
        },
        {
            "bufferView" : 1,
            "componentType" : 5126,
            "count" : 758,
            "type" : "VEC3"
        },
        {
            "bufferView" : 2,
            "componentType" : 5126,
            "count" : 758,
            "type" : "VEC2"
        },
        {
            "bufferView" : 3,
            "componentType" : 5123,
            "count" : 758,
            "type" : "VEC4"
        },
        {
            "bufferView" : 4,
            "componentType" : 5126,
            "count" : 758,
            "type" : "VEC4"
        },
        {
            "bufferView" : 5,
            "componentType" : 5123,
            "count" : 2238,
            "type" : "SCALAR"
        },
        {
            "bufferView" : 7,
            "componentType" : 5126,
            "count" : 6,
            "type" : "MAT4"
        },
        {
            "bufferView" : 8,
            "componentType" : 5126,
            "count" : 11,
            "max" : [
                0.4166666666666667
            ],
            "min" : [
                0
            ],
            "type" : "SCALAR"
        },
        {
            "bufferView" : 9,
            "componentType" : 5126,
            "count" : 11,
            "type" : "VEC3"
        },
        {
            "bufferView" : 10,
            "componentType" : 5126,
            "count" : 11,
            "type" : "VEC4"
        },
        {
            "bufferView" : 11,
            "componentType" : 5126,
            "count" : 11,
            "type" : "VEC3"
        },
        {
            "bufferView" : 12,
            "componentType" : 5126,
            "count" : 11,
            "type" : "VEC3"
        },
        {
            "bufferView" : 13,
            "componentType" : 5126,
            "count" : 11,
            "type" : "VEC4"
        },
        {
            "bufferView" : 14,
            "componentType" : 5126,
            "count" : 11,
            "type" : "VEC3"
        },
        {
            "bufferView" : 15,
            "componentType" : 5126,
            "count" : 11,
            "type" : "VEC3"
        },
        {
            "bufferView" : 16,
            "componentType" : 5126,
            "count" : 11,
            "type" : "VEC4"
        },
        {
            "bufferView" : 17,
            "componentType" : 5126,
            "count" : 11,
            "type" : "VEC3"
        },
        {
            "bufferView" : 18,
            "componentType" : 5126,
            "count" : 11,
            "type" : "VEC3"
        },
        {
            "bufferView" : 19,
            "componentType" : 5126,
            "count" : 11,
            "type" : "VEC4"
        },
        {
            "bufferView" : 20,
            "componentType" : 5126,
            "count" : 11,
            "type" : "VEC3"
        },
        {
            "bufferView" : 21,
            "componentType" : 5126,
            "count" : 11,
            "type" : "VEC3"
        },
        {
            "bufferView" : 22,
            "componentType" : 5126,
            "count" : 11,
            "type" : "VEC4"
        },
        {
            "bufferView" : 23,
            "componentType" : 5126,
            "count" : 11,
            "type" : "VEC3"
        },
        {
            "bufferView" : 24,
            "componentType" : 5126,
            "count" : 11,
            "type" : "VEC3"
        },
        {
            "bufferView" : 25,
            "componentType" : 5126,
            "count" : 11,
            "type" : "VEC4"
        },
        {
            "bufferView" : 26,
            "componentType" : 5126,
            "count" : 11,
            "type" : "VEC3"
        }
    ],
    "bufferViews" : [
        {
            "buffer" : 0,
            "byteLength" : 9096,
            "byteOffset" : 0
        },
        {
            "buffer" : 0,
            "byteLength" : 9096,
            "byteOffset" : 9096
        },
        {
            "buffer" : 0,
            "byteLength" : 6064,
            "byteOffset" : 18192
        },
        {
            "buffer" : 0,
            "byteLength" : 6064,
            "byteOffset" : 24256
        },
        {
            "buffer" : 0,
            "byteLength" : 12128,
            "byteOffset" : 30320
        },
        {
            "buffer" : 0,
            "byteLength" : 4476,
            "byteOffset" : 42448
        },
        {
            "buffer" : 0,
            "byteLength" : 131,
            "byteOffset" : 46924
        },
        {
            "buffer" : 0,
            "byteLength" : 384,
            "byteOffset" : 47056
        },
        {
            "buffer" : 0,
            "byteLength" : 44,
            "byteOffset" : 47440
        },
        {
            "buffer" : 0,
            "byteLength" : 132,
            "byteOffset" : 47484
        },
        {
            "buffer" : 0,
            "byteLength" : 176,
            "byteOffset" : 47616
        },
        {
            "buffer" : 0,
            "byteLength" : 132,
            "byteOffset" : 47792
        },
        {
            "buffer" : 0,
            "byteLength" : 132,
            "byteOffset" : 47924
        },
        {
            "buffer" : 0,
            "byteLength" : 176,
            "byteOffset" : 48056
        },
        {
            "buffer" : 0,
            "byteLength" : 132,
            "byteOffset" : 48232
        },
        {
            "buffer" : 0,
            "byteLength" : 132,
            "byteOffset" : 48364
        },
        {
            "buffer" : 0,
            "byteLength" : 176,
            "byteOffset" : 48496
        },
        {
            "buffer" : 0,
            "byteLength" : 132,
            "byteOffset" : 48672
        },
        {
            "buffer" : 0,
            "byteLength" : 132,
            "byteOffset" : 48804
        },
        {
            "buffer" : 0,
            "byteLength" : 176,
            "byteOffset" : 48936
        },
        {
            "buffer" : 0,
            "byteLength" : 132,
            "byteOffset" : 49112
        },
        {
            "buffer" : 0,
            "byteLength" : 132,
            "byteOffset" : 49244
        },
        {
            "buffer" : 0,
            "byteLength" : 176,
            "byteOffset" : 49376
        },
        {
            "buffer" : 0,
            "byteLength" : 132,
            "byteOffset" : 49552
        },
        {
            "buffer" : 0,
            "byteLength" : 132,
            "byteOffset" : 49684
        },
        {
            "buffer" : 0,
            "byteLength" : 176,
            "byteOffset" : 49816
        },
        {
            "buffer" : 0,
            "byteLength" : 132,
            "byteOffset" : 49992
        }
    ],
    "buffers" : [
        {
            "byteLength" : 50124,
            "uri" : "data:application/octet-stream;base64,"
        }
    ]
}
